Results
version=1
nRows=52
nColumns=21
inDegrees=yes
endheader
time	sternoclavicular_r2	sternoclavicular_r3	unrotscap_r3	unrotscap_r2	acromioclavicular_r2	acromioclavicular_r3	acromioclavicular_r1	unrothum_r1	unrothum_r3	unrothum_r2	elv_angle	shoulder_elv	shoulder1_r2	shoulder_rot	elbow_flexion	pro_sup	deviation	flexion	wrist_hand_r1	wrist_hand_r3	
0	-3.4031	1.4413	-1.4414	3.4031	-0.68906	5.5687	2.5031	-2.5031	-5.5687	0.68906	-32.112	14.062	32.112	-7.9825	102.93	38.116	-1.397e-05	-7.48e-06	-6.39e-06	-7.63e-06
0.005	-3.402	1.4409	-1.441	3.402	-0.68885	5.567	2.5024	-2.5023	-5.567	0.68884	-32.112	14.058	32.112	-7.9879	102.93	38.115	-1.2721e-05	-7.3199e-06	-5.9604e-06	-7.7955e-06
0.01	-3.401	1.4404	-1.4406	3.401	-0.68864	5.5653	2.5016	-2.5016	-5.5653	0.68862	-32.111	14.054	32.111	-7.9934	102.94	38.115	-1.1677e-05	-7.1798e-06	-5.575e-06	-7.937e-06
0.015	-3.3999	1.44	-1.4401	3.3999	-0.68844	5.5636	2.5009	-2.5008	-5.5636	0.6884	-32.11	14.049	32.11	-7.9988	102.94	38.114	-1.0863e-05	-7.0245e-06	-4.8755e-06	-8.0986e-06
0.02	-3.3989	1.4395	-1.4397	3.3989	-0.68823	5.5619	2.5001	-2.5	-5.5619	0.68819	-32.11	14.045	32.11	-8.0042	102.95	38.114	-1.0067e-05	-6.8221e-06	-4.0427e-06	-8.3039e-06
0.025	-3.3979	1.4391	-1.4393	3.3978	-0.68803	5.5601	2.4993	-2.4992	-5.5602	0.68797	-32.109	14.041	32.109	-8.0097	102.95	38.113	-9.3877e-06	-6.6499e-06	-3.3683e-06	-8.4786e-06
0.03	-3.3968	1.4386	-1.4388	3.3968	-0.68782	5.5584	2.4986	-2.4985	-5.5585	0.68775	-32.109	14.036	32.109	-8.0151	102.95	38.112	-8.5501e-06	-6.5565e-06	-2.1214e-06	-8.6027e-06
0.035	-3.3958	1.4382	-1.4384	3.3957	-0.68762	5.5567	2.4978	-2.4977	-5.5568	0.68754	-32.108	14.032	32.108	-8.0206	102.96	38.112	-7.3131e-06	-6.4199e-06	-5.3958e-07	-8.7648e-06
0.04	-3.3948	1.4377	-1.438	3.3947	-0.68741	5.555	2.4971	-2.4969	-5.5551	0.68732	-32.108	14.028	32.108	-8.026	102.96	38.111	-6.5612e-06	-6.332e-06	7.0129e-07	-8.8817e-06
0.045	-3.3937	1.4373	-1.4375	3.3936	-0.6872	5.5533	2.4963	-2.4961	-5.5533	0.6871	-32.107	14.023	32.107	-8.0318	102.97	38.111	-5.8038e-06	-6.2441e-06	1.5295e-06	-8.9914e-06
0.05	-3.3926	1.4368	-1.437	3.3925	-0.68698	5.5514	2.4955	-2.4953	-5.5515	0.68687	-32.106	14.019	32.106	-8.0379	102.97	38.11	-5.1566e-06	-6.1574e-06	2.4539e-06	-9.0952e-06
0.055	-3.3914	1.4363	-1.4365	3.3913	-0.68675	5.5495	2.4946	-2.4944	-5.5496	0.68663	-32.106	14.014	32.106	-8.0443	102.98	38.11	-4.7986e-06	-6.0707e-06	3.3333e-06	-9.1916e-06
0.06	-3.3902	1.4358	-1.436	3.3901	-0.68651	5.5476	2.4937	-2.4936	-5.5476	0.68638	-32.105	14.009	32.105	-8.051	102.98	38.109	-4.3056e-06	-5.9842e-06	3.9502e-06	-9.2808e-06
0.065	-3.389	1.4352	-1.4355	3.3889	-0.68626	5.5455	2.4928	-2.4926	-5.5456	0.68613	-32.104	14.004	32.104	-8.058	102.99	38.108	-4.2043e-06	-5.8978e-06	4.5618e-06	-9.3627e-06
0.07	-3.3877	1.4347	-1.435	3.3876	-0.686	5.5435	2.4919	-2.4917	-5.5435	0.68586	-32.103	13.999	32.103	-8.0653	102.99	38.108	-4.2836e-06	-5.8116e-06	5.0798e-06	-9.4375e-06
0.075	-3.3864	1.4341	-1.4344	3.3863	-0.68574	5.5413	2.4909	-2.4907	-5.5414	0.68559	-32.103	13.993	32.103	-8.0729	103	38.107	-4.1322e-06	-5.7258e-06	5.4448e-06	-9.5055e-06
0.08	-3.385	1.4336	-1.4339	3.3849	-0.68546	5.5391	2.4899	-2.4897	-5.5391	0.68532	-32.102	13.988	32.102	-8.0808	103.01	38.106	-4.2228e-06	-5.6412e-06	6.1541e-06	-9.5674e-06
0.085	-3.3837	1.433	-1.4333	3.3835	-0.68518	5.5368	2.4889	-2.4887	-5.5369	0.68504	-32.101	13.982	32.101	-8.089	103.01	38.106	-4.0104e-06	-5.5571e-06	6.7721e-06	-9.6225e-06
0.09	-3.3822	1.4324	-1.4327	3.3821	-0.68489	5.5345	2.4879	-2.4877	-5.5346	0.68475	-32.1	13.976	32.1	-8.0974	103.02	38.105	-3.8466e-06	-5.4732e-06	7.0541e-06	-9.6704e-06
0.095	-3.3808	1.4317	-1.4321	3.3807	-0.6846	5.5321	2.4868	-2.4866	-5.5322	0.68445	-32.099	13.97	32.099	-8.1062	103.02	38.104	-3.7993e-06	-5.3896e-06	7.1244e-06	-9.7116e-06
0.1	-3.3793	1.4311	-1.4314	3.3792	-0.68429	5.5296	2.4857	-2.4855	-5.5297	0.68415	-32.099	13.964	32.099	-8.1152	103.03	38.103	-3.7317e-06	-5.3065e-06	6.9764e-06	-9.7458e-06
0.105	-3.3777	1.4305	-1.4308	3.3776	-0.68398	5.5271	2.4846	-2.4844	-5.5272	0.68384	-32.098	13.957	32.098	-8.1246	103.04	38.102	-3.7813e-06	-5.2234e-06	6.6989e-06	-9.7726e-06
0.11	-3.3762	1.4298	-1.4301	3.3761	-0.68366	5.5245	2.4834	-2.4832	-5.5247	0.68353	-32.097	13.951	32.097	-8.1342	103.04	38.102	-3.9603e-06	-5.1411e-06	6.4314e-06	-9.7931e-06
0.115	-3.3746	1.4291	-1.4294	3.3745	-0.68334	5.5219	2.4822	-2.482	-5.522	0.6832	-32.096	13.944	32.096	-8.1441	103.05	38.101	-4.2738e-06	-5.0591e-06	5.9786e-06	-9.8066e-06
0.12	-3.373	1.4285	-1.4288	3.3729	-0.68302	5.5194	2.4811	-2.4809	-5.5195	0.68289	-32.095	13.938	32.095	-8.1537	103.06	38.1	-4.825e-06	-5.0773e-06	5.5618e-06	-9.7405e-06
0.125	-3.3715	1.4278	-1.4281	3.3714	-0.68272	5.5169	2.48	-2.4798	-5.5171	0.68259	-32.094	13.932	32.094	-8.1629	103.07	38.099	-5.0875e-06	-5.0034e-06	5.395e-06	-9.7507e-06
0.13	-3.3701	1.4272	-1.4275	3.37	-0.68242	5.5146	2.4789	-2.4788	-5.5147	0.6823	-32.093	13.926	32.093	-8.1719	103.07	38.098	-5.2535e-06	-5.0754e-06	5.5711e-06	-9.6541e-06
0.135	-3.3687	1.4266	-1.427	3.3686	-0.68214	5.5123	2.4779	-2.4778	-5.5125	0.68203	-32.092	13.92	32.092	-8.1804	103.08	38.098	-5.4261e-06	-5.2108e-06	5.6997e-06	-9.5067e-06
0.14	-3.3674	1.4261	-1.4264	3.3673	-0.68187	5.5102	2.4769	-2.4768	-5.5103	0.68176	-32.092	13.915	32.092	-8.1887	103.08	38.097	-5.458e-06	-5.2388e-06	5.8343e-06	-9.4487e-06
0.145	-3.3661	1.4255	-1.4259	3.366	-0.68162	5.5081	2.476	-2.4759	-5.5083	0.68151	-32.091	13.909	32.091	-8.1966	103.09	38.096	-5.6233e-06	-5.225e-06	6.1519e-06	-9.4295e-06
0.15	-3.3649	1.425	-1.4253	3.3648	-0.68137	5.5061	2.4751	-2.475	-5.5063	0.68127	-32.09	13.904	32.09	-8.2042	103.1	38.096	-5.7862e-06	-5.2466e-06	6.3982e-06	-9.3807e-06
0.155	-3.3638	1.4245	-1.4249	3.3637	-0.68114	5.5042	2.4742	-2.4741	-5.5044	0.68104	-32.09	13.9	32.089	-8.2114	103.1	38.095	-5.9806e-06	-5.2826e-06	6.6667e-06	-9.3231e-06
0.16	-3.3627	1.4241	-1.4244	3.3626	-0.68091	5.5024	2.4734	-2.4733	-5.5026	0.68082	-32.089	13.895	32.089	-8.2183	103.11	38.094	-5.9761e-06	-5.3144e-06	6.9061e-06	-9.2753e-06
0.165	-3.3617	1.4237	-1.424	3.3616	-0.6807	5.5007	2.4727	-2.4726	-5.501	0.68061	-32.088	13.891	32.088	-8.2249	103.11	38.094	-5.852e-06	-5.3423e-06	6.988e-06	-9.228e-06
0.17	-3.3607	1.4232	-1.4235	3.3606	-0.6805	5.4991	2.4719	-2.4719	-5.4994	0.68041	-32.088	13.887	32.088	-8.2311	103.11	38.093	-5.596e-06	-5.3683e-06	6.9375e-06	-9.1808e-06
0.175	-3.3598	1.4228	-1.4231	3.3597	-0.68031	5.4976	2.4713	-2.4712	-5.4979	0.68023	-32.087	13.883	32.087	-8.237	103.12	38.093	-5.2656e-06	-5.3971e-06	6.969e-06	-9.1365e-06
0.18	-3.3589	1.4225	-1.4228	3.3588	-0.68013	5.4962	2.4706	-2.4706	-5.4964	0.68006	-32.087	13.88	32.087	-8.2426	103.12	38.092	-4.8782e-06	-5.4226e-06	6.6519e-06	-9.0902e-06
0.185	-3.3581	1.4221	-1.4224	3.358	-0.67996	5.4949	2.47	-2.47	-5.4951	0.6799	-32.086	13.876	32.086	-8.2478	103.13	38.092	-4.7111e-06	-5.4473e-06	6.2087e-06	-9.0436e-06
0.19	-3.3573	1.4218	-1.4221	3.3572	-0.67981	5.4936	2.4695	-2.4694	-5.4939	0.67974	-32.086	13.873	32.086	-8.2526	103.13	38.091	-4.1033e-06	-5.4743e-06	5.8863e-06	-8.9997e-06
0.195	-3.3566	1.4215	-1.4218	3.3565	-0.67966	5.4925	2.4689	-2.4689	-5.4927	0.6796	-32.085	13.87	32.085	-8.2572	103.13	38.091	-3.62e-06	-5.5026e-06	5.8028e-06	-8.9576e-06
0.2	-3.356	1.4212	-1.4215	3.3559	-0.67953	5.4914	2.4684	-2.4684	-5.4917	0.67947	-32.085	13.867	32.085	-8.2614	103.14	38.091	-2.9936e-06	-5.5317e-06	5.5833e-06	-8.9169e-06
0.205	-3.3554	1.421	-1.4213	3.3553	-0.67941	5.4904	2.468	-2.468	-5.4907	0.67936	-32.085	13.865	32.085	-8.2652	103.14	38.09	-2.3206e-06	-5.562e-06	5.3917e-06	-8.8783e-06
0.21	-3.3548	1.4208	-1.421	3.3547	-0.67929	5.4895	2.4676	-2.4676	-5.4898	0.67925	-32.084	13.863	32.084	-8.2688	103.14	38.09	-1.6948e-06	-5.5933e-06	5.2673e-06	-8.8411e-06
0.215	-3.3543	1.4206	-1.4208	3.3542	-0.67919	5.4887	2.4672	-2.4672	-5.489	0.67915	-32.084	13.861	32.084	-8.272	103.14	38.09	-1.0084e-06	-5.6257e-06	5.1456e-06	-8.8055e-06
0.22	-3.3539	1.4204	-1.4206	3.3538	-0.6791	5.488	2.4669	-2.4669	-5.4883	0.67906	-32.084	13.859	32.084	-8.2749	103.14	38.09	-8.3467e-08	-5.6588e-06	4.8869e-06	-8.771e-06
0.225	-3.3535	1.4202	-1.4205	3.3534	-0.67902	5.4873	2.4666	-2.4666	-5.4876	0.67898	-32.084	13.857	32.083	-8.2774	103.15	38.089	5.4353e-07	-5.6927e-06	4.8136e-06	-8.7375e-06
0.23	-3.3531	1.4201	-1.4203	3.3531	-0.67895	5.4868	2.4664	-2.4664	-5.4871	0.67891	-32.083	13.856	32.083	-8.2796	103.15	38.089	1.087e-06	-5.7268e-06	4.6964e-06	-8.7044e-06
0.235	-3.3528	1.4199	-1.4202	3.3528	-0.67889	5.4863	2.4661	-2.4662	-5.4866	0.67886	-32.083	13.855	32.083	-8.2815	103.15	38.089	1.3556e-06	-5.7614e-06	4.6522e-06	-8.6726e-06
0.24	-3.3526	1.4198	-1.4201	3.3525	-0.67884	5.4859	2.466	-2.466	-5.4862	0.67881	-32.083	13.854	32.083	-8.2831	103.15	38.089	1.6023e-06	-5.7969e-06	4.7814e-06	-8.6419e-06
0.245	-3.3524	1.4198	-1.42	3.3523	-0.6788	5.4856	2.4658	-2.4658	-5.4859	0.67877	-32.083	13.853	32.083	-8.2844	103.15	38.089	1.4951e-06	-5.8328e-06	5.1931e-06	-8.6118e-06
0.25	-3.3523	1.4197	-1.42	3.3522	-0.67877	5.4853	2.4657	-2.4657	-5.4856	0.67874	-32.083	13.852	32.083	-8.2854	103.15	38.089	1.3962e-06	-5.8694e-06	5.6586e-06	-8.583e-06
0.255	-3.3522	1.4196	-1.4199	3.3521	-0.67875	5.4852	2.4656	-2.4657	-5.4855	0.67872	-32.083	13.852	32.083	-8.286	103.15	38.089	1.0672e-06	-5.9065e-06	6.2922e-06	-8.5551e-06
